<svg xmlns="http://www.w3.org/2000/svg" viewBox="0 0 632 817">
  <!-- Northbridge Bank right background: mobile card controls and cohort support -->

  <g transform="rotate(7 560 166)">
    <rect x="470" y="18" width="178" height="356" rx="24" fill="#dceefb" opacity=".48"/>
    <rect x="470" y="18" width="178" height="356" rx="24" fill="none" stroke="#1499e6" stroke-width="1.4" opacity=".22"/>
    <rect x="480" y="32" width="158" height="326" rx="17" fill="#ffffff" opacity=".42"/>
    <rect x="530" y="40" width="58" height="7" rx="3.5" fill="#35556f" opacity=".15"/>

    <rect x="494" y="66" width="76" height="4" rx="2" fill="#35556f" opacity=".30"/>
    <rect x="494" y="80" width="118" height="5" rx="2.5" fill="#607a95" opacity=".20"/>

    <rect x="494" y="108" width="128" height="72" rx="12" fill="#1499e6" opacity=".14"/>
    <rect x="508" y="123" width="62" height="4" rx="2" fill="#35556f" opacity=".28"/>
    <rect x="508" y="140" width="88" height="8" rx="4" fill="#35556f" opacity=".32"/>
    <rect x="508" y="162" width="48" height="4" rx="2" fill="#1499e6" opacity=".28"/>

    <g transform="translate(496 206)">
      <rect x="0" y="0" width="126" height="46" rx="10" fill="#dceefb" opacity=".72"/>
      <circle cx="23" cy="23" r="12" fill="#1499e6" opacity=".18"/>
      <path d="M16 24h14M23 17v14" stroke="#1499e6" stroke-width="1.8" stroke-linecap="round" opacity=".40"/>
      <rect x="44" y="14" width="54" height="4" rx="2" fill="#35556f" opacity=".28"/>
      <rect x="44" y="25" width="66" height="3" rx="1.5" fill="#607a95" opacity=".18"/>
    </g>

    <g transform="translate(496 267)">
      <rect x="0" y="0" width="126" height="46" rx="10" fill="#4ebcff" opacity=".16"/>
      <circle cx="23" cy="23" r="12" fill="#1499e6" opacity=".14"/>
      <path d="M17 25l5 5 9-14" fill="none" stroke="#1499e6" stroke-width="2" stroke-linecap="round" stroke-linejoin="round" opacity=".42"/>
      <rect x="44" y="14" width="62" height="4" rx="2" fill="#35556f" opacity=".26"/>
      <rect x="44" y="25" width="48" height="3" rx="1.5" fill="#607a95" opacity=".17"/>
    </g>
  </g>

  <g transform="translate(388 410)">
    <rect x="0" y="0" width="214" height="148" rx="14" fill="#ffffff" opacity=".50"/>
    <rect x="0" y="0" width="214" height="148" rx="14" fill="none" stroke="#1499e6" stroke-width=".8" opacity=".16"/>
    <rect x="18" y="18" width="104" height="5" rx="2.5" fill="#35556f" opacity=".30"/>
    <line x1="18" y1="38" x2="196" y2="38" stroke="#1499e6" stroke-width=".7" opacity=".15"/>

    <g transform="translate(18 58)">
      <rect x="0" y="0" width="78" height="58" rx="11" fill="#1499e6" opacity=".15"/>
      <rect x="14" y="13" width="38" height="5" rx="2.5" fill="#35556f" opacity=".28"/>
      <rect x="14" y="29" width="50" height="4" rx="2" fill="#607a95" opacity=".18"/>
      <rect x="14" y="42" width="36" height="4" rx="2" fill="#1499e6" opacity=".25"/>
    </g>

    <g transform="translate(116 58)">
      <rect x="0" y="0" width="78" height="58" rx="11" fill="#dceefb" opacity=".74"/>
      <rect x="14" y="13" width="54" height="5" rx="2.5" fill="#35556f" opacity=".25"/>
      <rect x="14" y="29" width="44" height="4" rx="2" fill="#607a95" opacity=".17"/>
      <rect x="14" y="42" width="42" height="4" rx="2" fill="#35556f" opacity=".15"/>
    </g>
  </g>

  <g transform="translate(420 632)">
    <rect x="0" y="0" width="182" height="92" rx="13" fill="#dceefb" opacity=".56"/>
    <rect x="0" y="0" width="182" height="92" rx="13" fill="none" stroke="#1499e6" stroke-width=".8" opacity=".18"/>
    <circle cx="32" cy="32" r="15" fill="#1499e6" opacity=".16"/>
    <path d="M24 32h16M32 24v16" stroke="#1499e6" stroke-width="2" stroke-linecap="round" opacity=".38"/>
    <rect x="60" y="20" width="82" height="5" rx="2.5" fill="#35556f" opacity=".30"/>
    <rect x="60" y="36" width="102" height="4" rx="2" fill="#607a95" opacity=".18"/>
    <rect x="60" y="58" width="54" height="16" rx="8" fill="#1499e6" opacity=".14"/>
    <rect x="124" y="58" width="38" height="16" rx="8" fill="#35556f" opacity=".10"/>
  </g>

  <circle cx="402" cy="370" r="2.5" fill="#1499e6" opacity=".18"/>
  <circle cx="610" cy="585" r="2" fill="#4ebcff" opacity=".20"/>
  <circle cx="590" cy="782" r="3" fill="#1499e6" opacity=".15"/>
</svg>
