<svg viewBox="0 0 40 40" fill="none" xmlns="http://www.w3.org/2000/svg">
  <rect width="40" height="40" rx="10" fill="#e20074"/>
  <path d="M12 28V13h5.5c1.8 0 3.2.4 4.1 1.3.9.8 1.4 2 1.4 3.4 0 1-.3 1.9-.8 2.6-.5.7-1.3 1.2-2.2 1.5L23.5 28h-3.8l-3-5.5h-1V28H12zm3.7-8.3h1.6c.8 0 1.4-.2 1.8-.6.4-.4.6-.9.6-1.5s-.2-1.1-.6-1.5c-.4-.4-1-.6-1.8-.6h-1.6v4.2z" fill="#fff"/>
  <circle cx="27" cy="13" r="3.5" fill="none" stroke="#fff" stroke-width="1.5"/>
  <path d="M29.5 10.5l2-2M29.5 15.5l2 2M24.5 10.5l-2-2M24.5 15.5l-2 2" stroke="#fff" stroke-width="1.2" stroke-linecap="round"/>
</svg>
