<svg width="590" height="817" viewBox="0 0 590 817" fill="none" xmlns="http://www.w3.org/2000/svg">
  <rect width="590" height="817" fill="#EEF8F2"/>
  <circle cx="64" cy="126" r="108" fill="#00C78C" fill-opacity="0.10"/>
  <circle cx="158" cy="676" r="136" fill="#F8D24C" fill-opacity="0.10"/>
  <path d="M0 288C62 260 128 258 196 282C268 308 334 306 400 280V817H0V288Z" fill="#DDF1E8" fill-opacity="0.62"/>

  <g opacity="0.86">
    <rect x="-28" y="190" width="246" height="330" rx="28" fill="#10251F"/>
    <rect x="-6" y="224" width="202" height="262" rx="18" fill="#F7FCF9"/>
    <rect x="24" y="254" width="118" height="16" rx="8" fill="#00C78C" fill-opacity="0.82"/>
    <rect x="22" y="304" width="138" height="44" rx="10" fill="#E4F5EE"/>
    <rect x="38" y="319" width="78" height="6" rx="3" fill="#10251F" fill-opacity="0.58"/>
    <rect x="38" y="333" width="104" height="6" rx="3" fill="#00C78C" fill-opacity="0.45"/>
    <rect x="22" y="372" width="138" height="44" rx="10" fill="#F8D24C" fill-opacity="0.30"/>
    <rect x="38" y="387" width="88" height="6" rx="3" fill="#10251F" fill-opacity="0.52"/>
    <rect x="38" y="401" width="64" height="6" rx="3" fill="#10251F" fill-opacity="0.26"/>
    <circle cx="95" cy="454" r="7" fill="#00C78C" fill-opacity="0.82"/>
  </g>

  <g opacity="0.68">
    <circle cx="160" cy="604" r="58" fill="#F7FCF9"/>
    <circle cx="160" cy="604" r="45" fill="#10251F"/>
    <path d="M160 562V646M118 604H202" stroke="#F7FCF9" stroke-width="4" stroke-linecap="round"/>
    <path d="M132 574C148 583 172 583 188 574M132 634C148 625 172 625 188 634" stroke="#F7FCF9" stroke-width="4" stroke-linecap="round"/>
    <path d="M132 604C132 579 143 562 160 562C177 562 188 579 188 604C188 629 177 646 160 646C143 646 132 629 132 604Z" stroke="#F7FCF9" stroke-width="4"/>
  </g>

  <g opacity="0.46">
    <path d="M22 78L140 42L172 146L54 182L22 78Z" fill="#F7FCF9"/>
    <path d="M50 90L130 66M58 118L138 94M66 146L118 130" stroke="#00C78C" stroke-width="7" stroke-linecap="round"/>
    <circle cx="142" cy="134" r="11" fill="#F8D24C"/>
  </g>

  <rect x="250" width="340" height="817" fill="url(#fadeLeft)"/>
  <defs>
    <linearGradient id="fadeLeft" x1="250" y1="408.5" x2="590" y2="408.5" gradientUnits="userSpaceOnUse">
      <stop stop-color="#EEF8F2" stop-opacity="0"/>
      <stop offset="0.62" stop-color="#EEF8F2" stop-opacity="0.82"/>
      <stop offset="1" stop-color="#EEF8F2"/>
    </linearGradient>
  </defs>
</svg>
