<svg width="590" height="817" viewBox="0 0 590 817" fill="none" xmlns="http://www.w3.org/2000/svg">
  <rect width="590" height="817" fill="#EEF8F2"/>
  <circle cx="112" cy="118" r="88" fill="#00C78C" fill-opacity="0.14"/>
  <circle cx="276" cy="632" r="142" fill="#F8D24C" fill-opacity="0.12"/>
  <path d="M0 210C94 168 196 172 306 218C424 268 518 268 590 224V817H0V210Z" fill="#DDF1E8"/>
  <g opacity="0.94">
    <rect x="64" y="214" width="220" height="378" rx="30" fill="#10251F"/>
    <rect x="82" y="246" width="184" height="314" rx="18" fill="#F7FCF9"/>
    <rect x="112" y="276" width="124" height="18" rx="9" fill="#00C78C"/>
    <rect x="107" y="322" width="134" height="48" rx="10" fill="#E4F5EE"/>
    <rect x="121" y="337" width="70" height="7" rx="3.5" fill="#10251F" fill-opacity="0.72"/>
    <rect x="121" y="351" width="98" height="7" rx="3.5" fill="#00C78C" fill-opacity="0.75"/>
    <rect x="107" y="388" width="134" height="48" rx="10" fill="#E4F5EE"/>
    <rect x="121" y="403" width="86" height="7" rx="3.5" fill="#10251F" fill-opacity="0.72"/>
    <rect x="121" y="417" width="58" height="7" rx="3.5" fill="#00C78C" fill-opacity="0.75"/>
    <rect x="107" y="454" width="134" height="48" rx="10" fill="#F8D24C" fill-opacity="0.42"/>
    <rect x="121" y="469" width="76" height="7" rx="3.5" fill="#10251F" fill-opacity="0.72"/>
    <rect x="121" y="483" width="92" height="7" rx="3.5" fill="#10251F" fill-opacity="0.38"/>
    <circle cx="174" cy="538" r="8" fill="#00C78C"/>
  </g>
  <g opacity="0.88">
    <circle cx="346" cy="352" r="76" fill="#F7FCF9"/>
    <circle cx="346" cy="352" r="60" fill="#10251F"/>
    <path d="M346 295V409M290 352H402" stroke="#F7FCF9" stroke-width="5" stroke-linecap="round"/>
    <path d="M308 312C329 324 363 324 384 312M308 392C329 380 363 380 384 392" stroke="#F7FCF9" stroke-width="5" stroke-linecap="round"/>
    <path d="M309 352C309 318 324 295 346 295C368 295 383 318 383 352C383 386 368 409 346 409C324 409 309 386 309 352Z" stroke="#F7FCF9" stroke-width="5"/>
  </g>
  <g opacity="0.7">
    <path d="M392 498L498 452L560 596L454 642L392 498Z" fill="#10251F"/>
    <path d="M420 508L493 476M433 538L506 506M446 568L519 536" stroke="#00C78C" stroke-width="8" stroke-linecap="round"/>
    <circle cx="472" cy="609" r="16" fill="#F8D24C"/>
  </g>
  <rect x="430" width="160" height="817" fill="url(#fadeLeft)"/>
  <defs>
    <linearGradient id="fadeLeft" x1="430" y1="408.5" x2="590" y2="408.5" gradientUnits="userSpaceOnUse">
      <stop stop-color="#EEF8F2" stop-opacity="0"/>
      <stop offset="1" stop-color="#EEF8F2"/>
    </linearGradient>
  </defs>
</svg>
